<svg width="607.715" height="75.684" viewBox="0 0 607.715 75.684" xmlns="http://www.w3.org/2000/svg"><g id="svgGroup" stroke-linecap="round" fill-rule="evenodd" font-size="9pt" stroke="#ffffff" stroke-width="0.25mm" fill="#000000" style="stroke:#ffffff;stroke-width:0.25mm;fill:#000000"><path d="M 113.818 1.093 A 17.297 17.297 0 0 0 111.866 0.977 Q 108.301 0.977 104.615 1.807 A 27.295 27.295 0 0 0 97.657 4.395 A 22.377 22.377 0 0 0 91.822 8.911 A 17.835 17.835 0 0 0 90.615 10.356 A 19.416 19.416 0 0 0 87.891 15.479 A 217.354 217.354 0 0 1 76.709 13.574 A 521.582 521.582 0 0 1 65.332 11.206 A 2721.958 2721.958 0 0 1 54.224 8.74 Q 48.78 7.52 43.824 6.543 A 197.452 197.452 0 0 0 39.032 5.658 A 157.275 157.275 0 0 0 34.571 4.956 Q 32.154 4.613 30.03 4.463 A 44.399 44.399 0 0 0 26.905 4.346 A 49.134 49.134 0 0 0 23.413 4.467 A 40.708 40.708 0 0 0 16.285 5.591 Q 11.377 6.836 7.764 9.229 A 21.349 21.349 0 0 0 6.831 9.882 A 18.088 18.088 0 0 0 2.076 15.039 A 13.85 13.85 0 0 0 0.657 18.217 A 15.878 15.878 0 0 0 0 22.852 A 14.94 14.94 0 0 0 0.035 23.882 A 12.703 12.703 0 0 0 0.733 27.295 A 18.713 18.713 0 0 0 1.122 28.294 A 15.961 15.961 0 0 0 2.564 30.982 A 19.705 19.705 0 0 0 2.877 31.434 A 17.477 17.477 0 0 0 4.981 33.887 Q 6.299 35.156 7.471 35.938 A 2.159 2.159 0 0 0 7.644 36.047 A 1.705 1.705 0 0 0 8.497 36.279 A 1.7 1.7 0 0 0 9.227 36.117 A 2.067 2.067 0 0 0 9.742 35.767 A 1.657 1.657 0 0 0 10.205 35.062 A 1.991 1.991 0 0 0 10.303 34.424 A 1.998 1.998 0 0 0 10.28 34.122 A 2.257 2.257 0 0 0 10.108 33.545 A 1.434 1.434 0 0 0 9.473 32.861 A 0.196 0.196 0 0 1 9.462 32.856 Q 9.35 32.79 8.667 32.271 A 111.819 111.819 0 0 1 8.448 32.105 A 8.366 8.366 0 0 1 7.986 31.724 Q 7.258 31.081 6.446 30.103 A 12.554 12.554 0 0 1 5.426 28.674 A 16.572 16.572 0 0 1 4.517 26.978 A 8.757 8.757 0 0 1 3.918 25.223 A 10.604 10.604 0 0 1 3.663 22.852 A 13.565 13.565 0 0 1 3.671 22.361 A 11.199 11.199 0 0 1 5.445 16.577 Q 7.227 13.818 10.328 11.914 A 21.705 21.705 0 0 1 13.715 10.236 A 28.624 28.624 0 0 1 17.676 9.009 A 35.746 35.746 0 0 1 20.958 8.399 A 42.864 42.864 0 0 1 26.856 8.008 A 49.729 49.729 0 0 1 30.574 8.155 A 68.141 68.141 0 0 1 34.668 8.594 A 136.072 136.072 0 0 1 39.112 9.277 A 167.41 167.41 0 0 1 43.848 10.156 A 382.566 382.566 0 0 1 46.315 10.658 A 436.264 436.264 0 0 1 54.029 12.329 Q 59.327 13.526 64.795 14.746 Q 70.264 15.967 75.782 17.066 A 216.653 216.653 0 0 0 86.622 18.945 A 45.659 45.659 0 0 0 85.727 22.589 Q 85.076 25.782 84.737 29.497 A 93.37 93.37 0 0 0 84.375 37.109 A 465.829 465.829 0 0 0 79.395 37.323 A 365.19 365.19 0 0 0 74.805 37.573 A 477.358 477.358 0 0 0 72.173 37.741 Q 70.914 37.825 69.77 37.909 A 261.344 261.344 0 0 0 67.188 38.11 A 420.223 420.223 0 0 0 65.754 38.232 Q 64.26 38.362 63.137 38.472 A 118.689 118.689 0 0 0 62.134 38.574 A 1077.99 1077.99 0 0 1 61.696 38.621 Q 60.497 38.748 60.294 38.767 A 0.765 0.765 0 0 1 60.254 38.77 A 1.962 1.962 0 0 0 59.082 39.38 A 1.68 1.68 0 0 0 58.594 40.576 Q 58.594 41.504 59.229 41.968 A 2.379 2.379 0 0 0 59.732 42.251 A 2.512 2.512 0 0 0 60.694 42.432 A 3.06 3.06 0 0 0 60.756 42.431 Q 61.256 42.421 63.038 42.261 Q 64.942 42.09 68.042 41.821 A 249.179 249.179 0 0 1 70.083 41.654 Q 72.44 41.469 75.293 41.284 A 320.897 320.897 0 0 1 79.639 41.034 A 414.676 414.676 0 0 1 84.375 40.82 A 29.938 29.938 0 0 0 84.4 42.017 A 29.938 29.938 0 0 1 84.424 43.213 A 46.741 46.741 0 0 1 84.378 45.303 Q 83.824 57.675 76.587 64.258 A 23.555 23.555 0 0 1 70.498 68.233 Q 63.616 71.387 53.418 71.387 Q 50.548 71.387 48.022 71.127 A 36.88 36.88 0 0 1 43.58 70.41 A 41.773 41.773 0 0 1 39.799 69.366 A 31.084 31.084 0 0 1 36.06 67.871 Q 32.813 66.309 30.542 64.307 A 32.471 32.471 0 0 1 28.696 62.55 A 24.979 24.979 0 0 1 26.734 60.278 A 25.001 25.001 0 0 1 25.437 58.406 A 18.683 18.683 0 0 1 24.317 56.348 A 43.345 43.345 0 0 1 23.81 55.21 Q 23.579 54.667 23.39 54.177 A 20.703 20.703 0 0 1 22.998 53.076 A 2.242 2.242 0 0 0 22.97 52.995 A 1.823 1.823 0 0 0 22.339 52.149 A 1.725 1.725 0 0 0 21.289 51.807 A 2.39 2.39 0 0 0 21.206 51.808 A 1.794 1.794 0 0 0 19.922 52.368 A 2.349 2.349 0 0 0 19.887 52.406 A 1.807 1.807 0 0 0 19.385 53.662 A 1.576 1.576 0 0 0 19.39 53.786 A 1.233 1.233 0 0 0 19.41 53.931 A 1.559 1.559 0 0 0 19.41 53.933 Q 19.422 53.994 19.441 54.061 A 2.656 2.656 0 0 0 19.483 54.199 A 19.202 19.202 0 0 0 19.767 55.038 Q 20.233 56.317 20.997 57.935 A 23.764 23.764 0 0 0 22.193 60.144 A 31.238 31.238 0 0 0 23.731 62.427 Q 25.44 64.746 28.003 67.017 Q 30.567 69.287 34.156 71.094 A 32.055 32.055 0 0 0 38.038 72.724 A 43.071 43.071 0 0 0 42.505 73.999 Q 45.183 74.617 48.301 74.887 A 59.316 59.316 0 0 0 53.418 75.098 A 56.668 56.668 0 0 0 60.828 74.636 A 41.238 41.238 0 0 0 68.213 72.998 A 34.19 34.19 0 0 0 71.679 71.663 A 27.678 27.678 0 0 0 79.078 66.846 A 25.209 25.209 0 0 0 80.785 65.122 A 26.542 26.542 0 0 0 85.791 56.86 A 32.768 32.768 0 0 0 87.53 50.401 A 43.19 43.19 0 0 0 88.086 43.311 Q 88.086 42.627 88.062 41.992 A 31.6 31.6 0 0 1 88.051 41.672 A 35.292 35.292 0 0 1 88.038 40.674 Q 89.942 40.625 91.895 40.601 A 320.477 320.477 0 0 1 95.899 40.576 Q 98.584 40.576 101.343 40.674 Q 104.102 40.772 106.885 40.772 A 1.825 1.825 0 0 0 108.155 40.283 A 1.582 1.582 0 0 0 108.593 39.631 A 1.847 1.847 0 0 0 108.692 39.014 Q 108.692 38.281 108.228 37.72 A 1.602 1.602 0 0 0 107.521 37.224 A 2.096 2.096 0 0 0 106.934 37.109 A 688.553 688.553 0 0 0 101.319 36.939 Q 98.536 36.865 95.801 36.865 A 340.583 340.583 0 0 0 95.29 36.866 A 311.032 311.032 0 0 0 91.822 36.89 Q 89.893 36.914 88.038 36.963 A 94.469 94.469 0 0 1 88.215 31.885 A 70.562 70.562 0 0 1 88.648 27.295 A 51.713 51.713 0 0 1 89.247 23.651 A 39.933 39.933 0 0 1 90.332 19.434 A 111.132 111.132 0 0 0 95.548 19.934 A 87.288 87.288 0 0 0 101.758 20.166 Q 106.446 20.166 110.328 19.312 A 34.208 34.208 0 0 0 110.808 19.202 Q 112.477 18.81 113.935 18.286 A 20.941 20.941 0 0 0 116.993 16.919 A 15.371 15.371 0 0 0 119.048 15.569 A 11.441 11.441 0 0 0 121.314 13.233 A 8.029 8.029 0 0 0 122.852 8.447 A 7.342 7.342 0 0 0 122.731 7.084 A 5.315 5.315 0 0 0 121.778 4.859 A 7.821 7.821 0 0 0 119.043 2.564 A 13.16 13.16 0 0 0 115.455 1.343 A 22.27 22.27 0 0 0 113.818 1.093 Z M 407.032 43.701 L 414.551 44.336 A 364.444 364.444 0 0 1 419.558 44.805 Q 421.913 45.042 424.014 45.29 A 217.396 217.396 0 0 1 424.61 45.361 A 81.738 81.738 0 0 1 428.292 45.887 Q 430.108 46.192 431.7 46.557 A 46.48 46.48 0 0 1 432.422 46.729 Q 436.1 47.656 438.521 49.107 A 11.735 11.735 0 0 1 440.723 50.781 A 8.811 8.811 0 0 1 443.251 55.787 A 12.519 12.519 0 0 1 443.409 57.813 A 13.003 13.003 0 0 1 442.583 62.495 A 12.026 12.026 0 0 1 441.065 65.283 A 17.508 17.508 0 0 1 437.144 69.151 A 22.337 22.337 0 0 1 434.668 70.703 A 30.577 30.577 0 0 1 429.676 72.835 A 40.434 40.434 0 0 1 425.196 74.024 A 54.251 54.251 0 0 1 417.374 75.037 A 64.606 64.606 0 0 1 413.575 75.147 A 85.429 85.429 0 0 1 407.992 74.974 Q 404.604 74.751 401.734 74.243 Q 397.852 73.556 394.931 72.756 A 43.819 43.819 0 0 1 393.189 72.241 A 65.692 65.692 0 0 1 391.57 71.703 Q 389.828 71.096 388.626 70.546 A 16.806 16.806 0 0 1 387.94 70.215 A 346.355 346.355 0 0 1 387.514 69.996 Q 386.115 69.275 385.987 69.19 Q 385.108 68.701 385.108 67.627 A 1.906 1.906 0 0 1 385.216 66.972 A 1.655 1.655 0 0 1 385.694 66.284 A 2.213 2.213 0 0 1 386.215 65.938 A 1.752 1.752 0 0 1 386.963 65.772 A 1.722 1.722 0 0 1 387.94 66.065 Q 387.989 66.065 389.624 66.919 A 16.149 16.149 0 0 0 390.738 67.441 Q 392.224 68.078 394.507 68.799 A 44.699 44.699 0 0 0 397.159 69.541 Q 398.354 69.838 399.699 70.117 A 89.461 89.461 0 0 0 402.539 70.654 Q 406.652 71.368 411.918 71.468 A 92.134 92.134 0 0 0 413.672 71.484 Q 419.971 71.484 424.805 70.459 A 37.109 37.109 0 0 0 428.61 69.451 Q 430.5 68.834 432.077 68.053 A 20.565 20.565 0 0 0 432.935 67.603 A 17.753 17.753 0 0 0 435.429 65.945 Q 436.753 64.883 437.664 63.659 A 10.719 10.719 0 0 0 437.915 63.306 A 9.29 9.29 0 0 0 439.6 57.959 A 8.057 8.057 0 0 0 439.483 56.553 A 5.796 5.796 0 0 0 438.99 55.005 Q 438.379 53.76 437.305 52.857 A 9.359 9.359 0 0 0 435.758 51.809 A 11.692 11.692 0 0 0 434.742 51.318 A 20.577 20.577 0 0 0 432.567 50.538 A 24.411 24.411 0 0 0 431.495 50.244 Q 429.639 49.756 427.515 49.414 A 86.015 86.015 0 0 0 423.145 48.828 A 202.043 202.043 0 0 0 418.628 48.389 A 1576.409 1576.409 0 0 1 414.161 47.998 L 406.641 47.363 A 136.162 136.162 0 0 1 399.3 46.568 Q 395.97 46.111 393.044 45.51 A 75.633 75.633 0 0 1 391.138 45.093 Q 384.522 43.555 380.127 41.138 A 22.217 22.217 0 0 1 376.811 38.929 Q 374.931 37.401 373.697 35.594 A 13.784 13.784 0 0 1 373.536 35.352 A 13.541 13.541 0 0 1 371.429 29.269 A 17.08 17.08 0 0 1 371.338 27.49 A 17.564 17.564 0 0 1 372.871 20.161 A 17.156 17.156 0 0 1 373.413 19.068 A 23.882 23.882 0 0 1 377.993 13.138 A 27.759 27.759 0 0 1 379.078 12.158 A 35.234 35.234 0 0 1 384.589 8.309 A 42.406 42.406 0 0 1 387.476 6.812 A 63.453 63.453 0 0 1 396.735 3.318 A 70.385 70.385 0 0 1 397.754 3.027 Q 403.223 1.514 409.082 0.757 A 89.9 89.9 0 0 1 420.606 0 A 99.201 99.201 0 0 1 426.254 0.152 Q 428.989 0.309 431.379 0.625 A 53.2 53.2 0 0 1 432.935 0.855 Q 438.184 1.709 441.919 3.052 A 33.02 33.02 0 0 1 444.733 4.203 Q 446.035 4.812 447.113 5.482 A 17.434 17.434 0 0 1 448.047 6.104 Q 450.44 7.813 451.905 9.473 A 13.803 13.803 0 0 1 455.372 18.701 A 15.46 15.46 0 0 1 455.11 21.577 A 14.131 14.131 0 0 1 455.03 21.973 A 2.051 2.051 0 0 1 454.822 22.541 A 1.693 1.693 0 0 1 454.395 23.047 Q 453.907 23.438 453.321 23.438 A 2.232 2.232 0 0 1 452.675 23.348 A 1.745 1.745 0 0 1 451.905 22.876 A 1.967 1.967 0 0 1 451.506 22.282 A 1.78 1.78 0 0 1 451.368 21.582 A 7.091 7.091 0 0 1 451.514 20.142 Q 451.661 19.434 451.661 18.75 A 10.165 10.165 0 0 0 449.463 12.354 A 14.613 14.613 0 0 0 446.512 9.526 Q 445.154 8.533 443.464 7.703 A 24.553 24.553 0 0 0 443.238 7.593 A 30.423 30.423 0 0 0 439.381 6.078 Q 436.689 5.216 433.448 4.639 A 64.335 64.335 0 0 0 426.954 3.839 A 85.671 85.671 0 0 0 420.606 3.613 Q 415.186 3.613 409.693 4.321 A 82.152 82.152 0 0 0 399.779 6.207 A 75.645 75.645 0 0 0 399.146 6.372 A 59.506 59.506 0 0 0 391.369 9.005 A 53.207 53.207 0 0 0 389.698 9.741 A 38.848 38.848 0 0 0 385.117 12.222 A 31.386 31.386 0 0 0 382.056 14.429 A 23.033 23.033 0 0 0 378.691 17.795 A 19.436 19.436 0 0 0 376.954 20.337 Q 375.098 23.584 375.098 27.442 Q 375.098 30.42 376.392 32.691 A 12.776 12.776 0 0 0 379.486 36.297 A 14.832 14.832 0 0 0 379.932 36.646 Q 382.178 38.33 385.23 39.526 A 43.488 43.488 0 0 0 389.668 40.987 A 51.279 51.279 0 0 0 391.846 41.528 A 82.676 82.676 0 0 0 398.308 42.714 A 90.941 90.941 0 0 0 399.268 42.847 Q 403.125 43.359 407.032 43.701 Z M 482.813 66.797 L 482.862 69.092 A 72.567 72.567 0 0 1 483.704 67.365 A 94.233 94.233 0 0 1 484.668 65.503 A 125.291 125.291 0 0 1 486.575 62.053 A 138.886 138.886 0 0 1 486.866 61.548 A 81.611 81.611 0 0 1 489.356 57.52 A 48.841 48.841 0 0 1 491.914 53.981 A 44.682 44.682 0 0 1 492.09 53.76 A 13.101 13.101 0 0 1 493.156 52.612 Q 493.74 52.058 494.329 51.663 A 6.764 6.764 0 0 1 494.947 51.294 A 7.456 7.456 0 0 1 496.089 50.804 Q 496.903 50.537 497.657 50.537 A 5.337 5.337 0 0 1 498.777 50.65 A 4.14 4.14 0 0 1 499.878 51.05 Q 500.83 51.563 501.441 52.442 A 6.193 6.193 0 0 1 502.142 53.788 A 7.596 7.596 0 0 1 502.369 54.492 Q 502.686 55.664 502.686 57.031 A 15.486 15.486 0 0 1 502.665 57.807 Q 502.617 58.742 502.466 60.034 A 33.107 33.107 0 0 0 502.254 63.202 A 37.397 37.397 0 0 0 502.247 63.965 A 21.91 21.91 0 0 0 502.369 66.284 A 10.479 10.479 0 0 0 502.539 67.371 A 7.905 7.905 0 0 0 502.808 68.335 Q 503.125 69.238 503.76 69.8 Q 504.395 70.361 505.42 70.361 A 4.458 4.458 0 0 0 507.087 70.028 A 5.699 5.699 0 0 0 507.764 69.702 A 10.101 10.101 0 0 0 509.174 68.736 A 12.824 12.824 0 0 0 510.059 67.944 Q 511.182 66.846 512.207 65.503 A 33.588 33.588 0 0 0 513.852 63.153 A 30.372 30.372 0 0 0 514.063 62.818 A 38.831 38.831 0 0 0 515.024 61.177 A 32.324 32.324 0 0 0 515.528 60.23 A 118.01 118.01 0 0 0 515.83 59.633 Q 516.26 58.777 516.553 58.154 Q 516.987 57.156 518.001 57.045 A 2.409 2.409 0 0 1 518.262 57.031 Q 519.092 57.031 519.58 57.617 A 2.202 2.202 0 0 1 519.927 58.178 A 1.823 1.823 0 0 1 520.069 58.887 A 1.839 1.839 0 0 1 519.922 59.619 Q 519.763 59.938 519.359 60.811 A 209.79 209.79 0 0 0 519.165 61.231 Q 518.736 62.165 518.077 63.329 A 45.968 45.968 0 0 1 517.652 64.063 A 40.346 40.346 0 0 1 516.409 66.028 A 50.273 50.273 0 0 1 515.43 67.432 A 24.369 24.369 0 0 1 512.622 70.679 A 14.862 14.862 0 0 1 509.552 72.984 A 13.9 13.9 0 0 1 509.302 73.12 A 7.82 7.82 0 0 1 505.567 74.072 A 8.684 8.684 0 0 1 504.126 73.96 Q 502.851 73.745 501.954 73.12 A 6.595 6.595 0 0 1 499.83 70.703 A 10.006 10.006 0 0 1 498.969 68.314 A 11.869 11.869 0 0 1 498.804 67.432 A 24.199 24.199 0 0 1 498.54 64.345 A 21.987 21.987 0 0 1 498.536 63.916 A 23.977 23.977 0 0 1 498.564 62.77 A 29.23 29.23 0 0 1 498.609 62.036 A 74.548 74.548 0 0 1 498.78 60.059 A 144.013 144.013 0 0 0 498.871 59.113 A 117.663 117.663 0 0 0 498.951 58.228 A 24.409 24.409 0 0 0 498.995 57.625 Q 499.01 57.389 499.017 57.18 A 11.531 11.531 0 0 0 499.024 56.787 Q 499.024 55.274 498.609 54.736 Q 498.194 54.199 497.657 54.199 A 1.68 1.68 0 0 0 497.053 54.321 Q 496.562 54.51 496 54.992 A 6.58 6.58 0 0 0 495.874 55.103 A 12.724 12.724 0 0 0 495.012 55.965 Q 494.598 56.418 494.169 56.96 A 24.016 24.016 0 0 0 493.775 57.471 A 34.871 34.871 0 0 0 492.539 59.235 A 43.898 43.898 0 0 0 491.578 60.767 A 174.17 174.17 0 0 0 489.454 64.404 Q 488.428 66.211 487.598 67.847 A 824.428 824.428 0 0 0 487.201 68.63 Q 486.634 69.751 486.231 70.557 A 13.48 13.48 0 0 1 485.652 71.604 Q 484.91 72.807 484.156 73.316 A 5.564 5.564 0 0 1 483.521 73.689 Q 482.846 74.024 482.276 74.024 Q 480.777 74.024 479.972 72.851 A 3.293 3.293 0 0 1 479.956 72.827 Q 479.151 71.631 479.151 69.922 L 479.151 66.846 A 6502.397 6502.397 0 0 1 479.157 57.831 A 5620.963 5620.963 0 0 1 479.175 49.243 Q 479.2 40.869 479.419 33.667 A 268.484 268.484 0 0 1 479.712 26.807 A 196.887 196.887 0 0 1 480.152 20.63 A 88.25 88.25 0 0 1 480.608 16.494 Q 480.884 14.465 481.237 12.697 A 45.023 45.023 0 0 1 481.69 10.669 Q 482.715 6.543 484.302 4.297 A 6.13 6.13 0 0 1 485.459 3.041 A 4.383 4.383 0 0 1 488.282 2.051 A 6.209 6.209 0 0 1 490.01 2.281 A 5.002 5.002 0 0 1 491.748 3.174 A 7.422 7.422 0 0 1 493.359 4.969 A 9.673 9.673 0 0 1 494.043 6.226 A 14.746 14.746 0 0 1 494.839 8.454 A 20.027 20.027 0 0 1 495.313 10.718 A 34.781 34.781 0 0 1 495.685 14.887 A 39.815 39.815 0 0 1 495.704 16.113 A 60.601 60.601 0 0 1 494.654 27.417 Q 493.604 32.959 491.846 38.233 Q 490.088 43.506 487.745 48.511 Q 485.401 53.516 482.813 58.252 L 482.813 60.352 L 482.813 62.793 L 482.813 65.088 L 482.813 66.797 Z M 328.76 59.033 A 45.721 45.721 0 0 0 329.733 62.867 Q 331.565 68.873 334.32 70.034 A 3.502 3.502 0 0 0 335.694 70.313 A 4.92 4.92 0 0 0 338.093 69.673 A 6.732 6.732 0 0 0 339.063 69.019 A 16.04 16.04 0 0 0 341.152 66.989 A 19.453 19.453 0 0 0 342.066 65.845 A 28.473 28.473 0 0 0 344.532 61.865 A 91.815 91.815 0 0 0 345.282 60.366 Q 345.645 59.625 345.948 58.965 A 46.486 46.486 0 0 0 346.289 58.203 Q 346.778 57.031 347.998 57.031 Q 348.78 57.031 349.317 57.617 A 2.235 2.235 0 0 1 349.662 58.105 A 1.691 1.691 0 0 1 349.854 58.887 A 1.764 1.764 0 0 1 349.822 59.232 A 1.338 1.338 0 0 1 349.707 59.57 A 26.094 26.094 0 0 1 349.517 60.021 Q 349.3 60.521 348.998 61.171 A 87.757 87.757 0 0 1 348.706 61.792 A 30.243 30.243 0 0 1 347.974 63.233 A 39.844 39.844 0 0 1 347.095 64.771 A 50.537 50.537 0 0 1 345.543 67.192 A 58.12 58.12 0 0 1 344.971 68.018 Q 343.799 69.678 342.383 70.996 A 14.774 14.774 0 0 1 339.969 72.832 A 13.433 13.433 0 0 1 339.38 73.169 A 6.956 6.956 0 0 1 336.036 74.024 Q 332.764 74.024 330.42 71.753 A 10.849 10.849 0 0 1 328.884 69.843 Q 327.489 67.687 326.368 64.258 A 40.536 40.536 0 0 1 324.916 67.071 Q 323.415 69.705 321.893 71.231 A 11.126 11.126 0 0 1 321.631 71.484 Q 319.239 73.731 316.455 73.731 Q 314.991 73.731 313.623 73.267 A 5.88 5.88 0 0 1 311.231 71.729 A 7.093 7.093 0 0 1 310.201 70.327 A 9.576 9.576 0 0 1 309.571 68.97 Q 309.048 67.581 308.956 65.679 A 17.3 17.3 0 0 1 308.936 64.844 A 16.908 16.908 0 0 1 309.441 60.653 A 14.836 14.836 0 0 1 310.108 58.643 A 17.485 17.485 0 0 1 311.84 55.417 A 14.927 14.927 0 0 1 313.135 53.784 Q 314.991 51.758 317.261 50.635 Q 319.532 49.512 321.778 49.512 A 1.777 1.777 0 0 1 323.047 50.025 Q 323.584 50.537 323.584 51.318 Q 323.584 52.002 323.145 52.539 A 1.74 1.74 0 0 1 322.041 53.164 A 2.252 2.252 0 0 1 321.973 53.174 A 10.034 10.034 0 0 0 320.362 53.533 A 13.706 13.706 0 0 0 318.848 54.102 Q 317.188 54.834 315.796 56.226 Q 314.405 57.617 313.501 59.766 A 10.977 10.977 0 0 0 312.824 62.122 Q 312.598 63.403 312.598 64.893 A 9.688 9.688 0 0 0 312.696 66.314 Q 312.81 67.083 313.058 67.709 A 4.435 4.435 0 0 0 313.599 68.701 A 3.254 3.254 0 0 0 315.98 70.041 A 4.807 4.807 0 0 0 316.504 70.068 A 3.347 3.347 0 0 0 317.362 69.951 Q 317.728 69.854 318.113 69.677 A 5.599 5.599 0 0 0 318.164 69.653 A 3.59 3.59 0 0 0 318.783 69.273 Q 319.387 68.819 320.044 68.018 Q 321.023 66.824 322.189 64.65 A 41.335 41.335 0 0 0 322.242 64.551 Q 323.045 63.042 323.97 60.894 A 93.728 93.728 0 0 0 324.903 58.643 A 116.877 116.877 0 0 1 324.204 54.631 Q 323.774 51.889 323.389 48.731 A 89.606 89.606 0 0 1 322.876 42.786 A 121.604 121.604 0 0 1 322.705 36.182 A 103.599 103.599 0 0 1 322.815 31.49 A 117.921 117.921 0 0 1 322.901 29.859 A 81.528 81.528 0 0 1 323.536 23.413 A 55.015 55.015 0 0 1 324.36 18.868 A 48.578 48.578 0 0 1 324.707 17.432 Q 325.44 14.6 326.49 12.451 A 13.235 13.235 0 0 1 327.469 10.758 Q 328.153 9.763 328.955 9.058 A 4.745 4.745 0 0 1 332.178 7.813 Q 333.789 7.813 334.913 8.692 Q 336.036 9.57 336.744 11.133 Q 337.381 12.54 337.722 14.461 A 20.713 20.713 0 0 1 337.793 14.893 A 28.209 28.209 0 0 1 338.07 17.504 A 36.435 36.435 0 0 1 338.135 19.727 A 66.558 66.558 0 0 1 337.159 31.055 A 111.763 111.763 0 0 1 335.094 40.593 A 101.126 101.126 0 0 1 334.742 41.895 A 136.327 136.327 0 0 1 332.898 47.986 A 110.758 110.758 0 0 1 331.69 51.465 A 258.659 258.659 0 0 1 330.523 54.589 Q 329.584 57.05 328.76 59.033 Z M 254.151 26.074 L 229.395 26.074 L 229.395 26.611 A 45.681 45.681 0 0 1 229.223 30.487 A 55.671 55.671 0 0 1 228.955 32.959 Q 228.516 36.328 227.759 39.673 Q 227.002 43.018 226.05 46.192 A 105.746 105.746 0 0 1 225.086 49.243 A 85.07 85.07 0 0 1 224.097 52.051 A 62.505 62.505 0 0 1 223.226 54.265 Q 222.669 55.602 222.12 56.714 A 29.363 29.363 0 0 1 221.543 57.826 Q 220.995 58.826 220.516 59.468 A 7.344 7.344 0 0 1 220.362 59.668 A 30.44 30.44 0 0 0 221.4 62.733 A 26.381 26.381 0 0 0 221.875 63.843 A 19.431 19.431 0 0 0 222.933 65.857 A 15.346 15.346 0 0 0 223.853 67.212 Q 224.952 68.652 226.221 69.483 Q 227.491 70.313 228.955 70.313 Q 230.664 70.313 232.349 68.872 A 19.09 19.09 0 0 0 234.739 66.409 A 22.314 22.314 0 0 0 235.474 65.454 A 35.931 35.931 0 0 0 237.874 61.703 A 32.982 32.982 0 0 0 238.013 61.45 A 58.892 58.892 0 0 0 238.524 60.487 Q 239.068 59.44 239.41 58.657 A 15.612 15.612 0 0 0 239.6 58.203 Q 240.088 57.031 241.309 57.031 A 1.906 1.906 0 0 1 241.964 57.14 A 1.655 1.655 0 0 1 242.652 57.617 A 2.213 2.213 0 0 1 242.998 58.139 A 1.752 1.752 0 0 1 243.164 58.887 A 1.686 1.686 0 0 1 243.06 59.464 A 1.983 1.983 0 0 1 243.018 59.57 Q 242.876 59.902 242.344 61.06 A 354.825 354.825 0 0 1 242.31 61.133 A 29.976 29.976 0 0 1 241.841 62.103 Q 241.41 62.958 240.845 63.965 Q 239.942 65.576 238.746 67.359 Q 237.549 69.141 236.06 70.606 A 15.709 15.709 0 0 1 233.18 72.86 A 14.596 14.596 0 0 1 232.862 73.047 A 7.173 7.173 0 0 1 229.248 74.024 A 9.311 9.311 0 0 1 223.194 71.826 Q 220.627 69.726 218.797 66.021 A 25.393 25.393 0 0 1 218.628 65.674 A 31.335 31.335 0 0 1 216.974 61.353 Q 216.349 59.302 215.897 56.971 A 51.666 51.666 0 0 1 215.772 56.299 A 60.463 60.463 0 0 1 214.982 49.877 A 76.637 76.637 0 0 1 214.795 44.434 Q 214.795 42.822 214.844 40.65 A 114.976 114.976 0 0 1 214.957 37.546 A 135.039 135.039 0 0 1 215.039 36.06 A 92.83 92.83 0 0 1 215.408 31.718 A 102.079 102.079 0 0 1 215.479 31.079 Q 215.772 28.516 216.26 26.074 L 198.731 26.074 A 2.178 2.178 0 0 1 198.052 25.972 A 1.845 1.845 0 0 1 197.413 25.61 A 1.524 1.524 0 0 1 196.882 24.535 A 2.128 2.128 0 0 1 196.875 24.365 A 1.833 1.833 0 0 1 196.961 23.793 A 1.486 1.486 0 0 1 197.413 23.12 A 1.898 1.898 0 0 1 198.528 22.665 A 2.478 2.478 0 0 1 198.731 22.656 L 217.09 22.656 A 24.26 24.26 0 0 1 217.767 20.574 A 20.044 20.044 0 0 1 218.238 19.434 Q 218.897 17.969 219.751 16.895 A 7.405 7.405 0 0 1 220.82 15.795 A 6.18 6.18 0 0 1 221.656 15.21 A 4.531 4.531 0 0 1 223.975 14.6 A 4.116 4.116 0 0 1 225.116 14.752 A 3.441 3.441 0 0 1 226.099 15.21 A 4.826 4.826 0 0 1 227.214 16.269 A 6.066 6.066 0 0 1 227.637 16.895 A 8.347 8.347 0 0 1 228.251 18.186 A 11.161 11.161 0 0 1 228.638 19.434 A 22.04 22.04 0 0 1 228.996 21.174 A 27.942 27.942 0 0 1 229.2 22.656 L 254.151 22.656 A 2.178 2.178 0 0 1 254.83 22.758 A 1.845 1.845 0 0 1 255.469 23.12 A 1.524 1.524 0 0 1 256 24.195 A 2.128 2.128 0 0 1 256.006 24.365 A 1.833 1.833 0 0 1 255.921 24.938 A 1.486 1.486 0 0 1 255.469 25.61 A 1.898 1.898 0 0 1 254.354 26.066 A 2.478 2.478 0 0 1 254.151 26.074 Z M 183.655 67.157 A 92.616 92.616 0 0 0 182.813 68.848 A 85.426 85.426 0 0 0 182.816 68.814 Q 182.925 67.763 183.046 66.339 A 251.754 251.754 0 0 0 183.13 65.332 A 404.549 404.549 0 0 1 183.497 61.109 A 170.62 170.62 0 0 0 183.674 59.052 A 138.904 138.904 0 0 0 183.814 57.129 A 118.802 118.802 0 0 0 183.818 57.062 Q 183.936 55.258 183.936 54.395 Q 183.936 53.223 183.716 52.1 A 9.025 9.025 0 0 0 183.591 51.55 A 7.701 7.701 0 0 0 183.033 50.049 A 4.671 4.671 0 0 0 182.927 49.85 A 3.938 3.938 0 0 0 181.788 48.56 A 2.882 2.882 0 0 0 180.8 48.106 A 3.74 3.74 0 0 0 179.883 47.998 Q 178.47 47.998 177.043 49.356 A 10.22 10.22 0 0 0 176.05 50.464 Q 174.694 52.198 173.205 55.295 A 62.985 62.985 0 0 0 171.924 58.154 A 2.484 2.484 0 0 0 171.822 58.498 A 1.828 1.828 0 0 0 171.778 58.887 A 1.914 1.914 0 0 0 172.266 60.181 A 1.563 1.563 0 0 0 172.988 60.657 A 1.977 1.977 0 0 0 173.584 60.742 A 1.914 1.914 0 0 0 173.891 60.718 A 2.016 2.016 0 0 0 174.61 60.449 A 1.821 1.821 0 0 0 175.342 59.619 Q 176.661 56.433 177.622 54.689 A 14.065 14.065 0 0 1 178.223 53.687 A 28.325 28.325 0 0 1 178.252 53.643 Q 179.112 52.358 179.565 51.99 A 0.745 0.745 0 0 1 179.786 51.856 Q 180.017 52.048 180.126 52.788 A 7.299 7.299 0 0 1 180.176 53.223 A 24.573 24.573 0 0 1 180.209 53.647 A 27.686 27.686 0 0 1 180.274 55.567 Q 180.274 56.494 180.176 57.861 A 128.07 128.07 0 0 1 180.066 59.284 A 160.53 160.53 0 0 1 179.932 60.816 A 2315.694 2315.694 0 0 0 179.639 64.014 Q 179.493 65.625 179.346 67.017 A 446.074 446.074 0 0 0 179.259 67.848 Q 179.218 68.245 179.182 68.604 A 234.248 234.248 0 0 0 179.102 69.409 Q 179.026 70.191 179.009 70.571 A 4.221 4.221 0 0 0 179.004 70.752 Q 179.004 71.387 179.145 71.905 A 2.784 2.784 0 0 0 179.859 73.169 A 2.802 2.802 0 0 0 181.127 73.898 A 3.803 3.803 0 0 0 182.129 74.024 A 3.049 3.049 0 0 0 183.275 73.796 A 4.01 4.01 0 0 0 184.131 73.316 A 3.084 3.084 0 0 0 184.408 73.088 Q 185.246 72.317 186.084 70.557 Q 186.573 69.483 187.427 67.847 A 146.644 146.644 0 0 1 188.318 66.168 A 173.607 173.607 0 0 1 189.283 64.404 A 78.485 78.485 0 0 1 191.431 60.767 A 54.992 54.992 0 0 1 192.426 59.235 A 42.932 42.932 0 0 1 193.677 57.471 A 24.016 24.016 0 0 1 194.071 56.96 Q 194.501 56.418 194.915 55.965 A 12.724 12.724 0 0 1 195.777 55.103 A 6.58 6.58 0 0 1 195.902 54.992 Q 196.465 54.51 196.956 54.321 A 1.68 1.68 0 0 1 197.559 54.199 A 0.604 0.604 0 0 1 197.717 54.221 Q 198.046 54.31 198.438 54.761 Q 198.808 55.186 198.898 56.187 A 7.859 7.859 0 0 1 198.926 56.885 Q 198.926 57.813 198.853 58.838 A 43.66 43.66 0 0 1 198.658 60.889 A 55.079 55.079 0 0 0 198.586 61.52 A 47.176 47.176 0 0 0 198.462 62.842 A 29.429 29.429 0 0 0 198.453 62.964 Q 198.421 63.389 198.405 63.773 A 17.57 17.57 0 0 0 198.389 64.502 Q 198.389 66.211 198.658 67.896 A 10.359 10.359 0 0 0 198.712 68.209 A 9.084 9.084 0 0 0 199.707 70.972 A 6.178 6.178 0 0 0 201.856 73.218 A 4.755 4.755 0 0 0 202.514 73.559 Q 203.159 73.834 203.948 73.962 A 9.233 9.233 0 0 0 205.42 74.072 A 7.666 7.666 0 0 0 209.156 73.096 Q 210.938 72.119 212.476 70.654 A 22.481 22.481 0 0 0 215.284 67.407 A 59.404 59.404 0 0 0 216.334 65.885 A 46.249 46.249 0 0 0 217.505 64.038 Q 218.1 63.046 218.552 62.198 A 25.99 25.99 0 0 0 219.043 61.231 Q 219.501 60.277 219.72 59.83 A 32.203 32.203 0 0 1 219.825 59.619 A 1.983 1.983 0 0 0 219.867 59.512 A 1.686 1.686 0 0 0 219.971 58.936 Q 219.971 58.252 219.458 57.642 A 1.66 1.66 0 0 0 218.792 57.152 A 1.827 1.827 0 0 0 218.116 57.031 Q 217.579 57.031 217.115 57.324 A 1.794 1.794 0 0 0 216.783 57.594 A 1.967 1.967 0 0 0 216.407 58.154 A 18.709 18.709 0 0 1 216.356 58.272 Q 215.995 59.11 215.403 60.269 A 70.342 70.342 0 0 1 214.771 61.475 A 28.781 28.781 0 0 1 214.561 61.859 A 31.435 31.435 0 0 1 212.183 65.503 A 22.122 22.122 0 0 1 211.609 66.233 A 19.257 19.257 0 0 1 208.936 68.921 A 7.27 7.27 0 0 1 207.658 69.771 A 5.055 5.055 0 0 1 205.323 70.361 A 4.312 4.312 0 0 1 205.145 70.358 Q 204.768 70.342 204.447 70.26 A 2.281 2.281 0 0 1 203.663 69.898 A 2.752 2.752 0 0 1 203.147 69.406 A 3.23 3.23 0 0 1 202.686 68.628 A 4.959 4.959 0 0 1 202.68 68.615 Q 202.503 68.192 202.385 67.696 A 8.039 8.039 0 0 1 202.222 66.748 A 18.19 18.19 0 0 1 202.169 66.205 A 20.51 20.51 0 0 1 202.1 64.502 A 25.291 25.291 0 0 1 202.11 63.789 A 30.58 30.58 0 0 1 202.173 62.525 Q 202.247 61.475 202.32 60.449 A 222.015 222.015 0 0 1 202.393 59.454 A 183.804 183.804 0 0 1 202.466 58.521 Q 202.512 57.956 202.529 57.496 A 13.825 13.825 0 0 0 202.539 56.983 A 10.163 10.163 0 0 0 202.338 54.906 A 7.198 7.198 0 0 0 201.319 52.393 A 3.895 3.895 0 0 0 199.083 50.737 A 5.477 5.477 0 0 0 197.559 50.537 Q 196.805 50.537 195.991 50.804 A 7.456 7.456 0 0 0 194.849 51.294 A 6.764 6.764 0 0 0 194.231 51.663 Q 193.643 52.058 193.058 52.612 A 13.101 13.101 0 0 0 191.993 53.76 A 49.41 49.41 0 0 0 189.283 57.471 Q 187.989 59.424 186.817 61.401 A 96.816 96.816 0 0 0 184.62 65.308 A 124.703 124.703 0 0 0 183.655 67.157 Z M 277.015 67.157 A 92.616 92.616 0 0 0 276.172 68.848 A 85.426 85.426 0 0 0 276.176 68.814 Q 276.284 67.763 276.406 66.339 A 251.754 251.754 0 0 0 276.49 65.332 A 404.549 404.549 0 0 1 276.856 61.109 A 170.62 170.62 0 0 0 277.033 59.052 A 138.904 138.904 0 0 0 277.173 57.129 A 118.802 118.802 0 0 0 277.178 57.062 Q 277.295 55.258 277.295 54.395 Q 277.295 53.223 277.076 52.1 A 9.025 9.025 0 0 0 276.95 51.55 A 7.701 7.701 0 0 0 276.392 50.049 A 4.671 4.671 0 0 0 276.287 49.85 A 3.938 3.938 0 0 0 275.147 48.56 A 2.882 2.882 0 0 0 274.16 48.106 A 3.74 3.74 0 0 0 273.243 47.998 Q 271.829 47.998 270.402 49.356 A 10.22 10.22 0 0 0 269.41 50.464 Q 268.053 52.198 266.565 55.295 A 62.985 62.985 0 0 0 265.284 58.154 A 2.484 2.484 0 0 0 265.181 58.498 A 1.828 1.828 0 0 0 265.137 58.887 A 1.914 1.914 0 0 0 265.625 60.181 A 1.563 1.563 0 0 0 266.347 60.657 A 1.977 1.977 0 0 0 266.944 60.742 A 1.914 1.914 0 0 0 267.25 60.718 A 2.016 2.016 0 0 0 267.969 60.449 A 1.821 1.821 0 0 0 268.702 59.619 Q 270.02 56.433 270.981 54.689 A 14.065 14.065 0 0 1 271.582 53.687 A 28.325 28.325 0 0 1 271.612 53.643 Q 272.472 52.358 272.925 51.99 A 0.745 0.745 0 0 1 273.145 51.856 Q 273.376 52.048 273.486 52.788 A 7.299 7.299 0 0 1 273.536 53.223 A 24.573 24.573 0 0 1 273.569 53.647 A 27.686 27.686 0 0 1 273.633 55.567 Q 273.633 56.494 273.536 57.861 A 128.07 128.07 0 0 1 273.426 59.284 A 160.53 160.53 0 0 1 273.291 60.816 A 2315.694 2315.694 0 0 0 272.998 64.014 Q 272.852 65.625 272.705 67.017 A 446.074 446.074 0 0 0 272.619 67.848 Q 272.578 68.245 272.541 68.604 A 234.248 234.248 0 0 0 272.461 69.409 Q 272.385 70.191 272.368 70.571 A 4.221 4.221 0 0 0 272.364 70.752 Q 272.364 71.387 272.505 71.905 A 2.784 2.784 0 0 0 273.218 73.169 A 2.802 2.802 0 0 0 274.487 73.898 A 3.803 3.803 0 0 0 275.489 74.024 A 3.049 3.049 0 0 0 276.635 73.796 A 4.01 4.01 0 0 0 277.491 73.316 A 3.084 3.084 0 0 0 277.768 73.088 Q 278.606 72.317 279.444 70.557 Q 279.932 69.483 280.787 67.847 A 146.644 146.644 0 0 1 281.678 66.168 A 173.607 173.607 0 0 1 282.642 64.404 A 78.485 78.485 0 0 1 284.79 60.767 A 54.992 54.992 0 0 1 285.785 59.235 A 42.932 42.932 0 0 1 287.037 57.471 A 24.016 24.016 0 0 1 287.43 56.96 Q 287.86 56.418 288.274 55.965 A 12.724 12.724 0 0 1 289.136 55.103 A 6.58 6.58 0 0 1 289.261 54.992 Q 289.824 54.51 290.315 54.321 A 1.68 1.68 0 0 1 290.918 54.199 A 0.604 0.604 0 0 1 291.076 54.221 Q 291.405 54.31 291.797 54.761 Q 292.167 55.186 292.257 56.187 A 7.859 7.859 0 0 1 292.286 56.885 Q 292.286 57.813 292.212 58.838 A 43.66 43.66 0 0 1 292.017 60.889 A 55.079 55.079 0 0 0 291.945 61.52 A 47.176 47.176 0 0 0 291.822 62.842 A 29.429 29.429 0 0 0 291.812 62.964 Q 291.781 63.389 291.765 63.773 A 17.57 17.57 0 0 0 291.748 64.502 Q 291.748 66.211 292.017 67.896 A 10.359 10.359 0 0 0 292.072 68.209 A 9.084 9.084 0 0 0 293.067 70.972 A 6.178 6.178 0 0 0 295.215 73.218 A 4.755 4.755 0 0 0 295.873 73.559 Q 296.519 73.834 297.308 73.962 A 9.233 9.233 0 0 0 298.78 74.072 A 7.666 7.666 0 0 0 302.515 73.096 Q 304.297 72.119 305.835 70.654 A 22.481 22.481 0 0 0 308.643 67.407 A 59.404 59.404 0 0 0 309.693 65.885 A 46.249 46.249 0 0 0 310.865 64.038 Q 311.46 63.046 311.912 62.198 A 25.99 25.99 0 0 0 312.403 61.231 Q 312.861 60.277 313.08 59.83 A 32.203 32.203 0 0 1 313.184 59.619 A 1.983 1.983 0 0 0 313.226 59.512 A 1.686 1.686 0 0 0 313.33 58.936 Q 313.33 58.252 312.818 57.642 A 1.66 1.66 0 0 0 312.151 57.152 A 1.827 1.827 0 0 0 311.475 57.031 Q 310.938 57.031 310.474 57.324 A 1.794 1.794 0 0 0 310.142 57.594 A 1.967 1.967 0 0 0 309.766 58.154 A 18.709 18.709 0 0 1 309.716 58.272 Q 309.355 59.11 308.762 60.269 A 70.342 70.342 0 0 1 308.13 61.475 A 28.781 28.781 0 0 1 307.921 61.859 A 31.435 31.435 0 0 1 305.542 65.503 A 22.122 22.122 0 0 1 304.968 66.233 A 19.257 19.257 0 0 1 302.295 68.921 A 7.27 7.27 0 0 1 301.018 69.771 A 5.055 5.055 0 0 1 298.682 70.361 A 4.312 4.312 0 0 1 298.505 70.358 Q 298.127 70.342 297.807 70.26 A 2.281 2.281 0 0 1 297.022 69.898 A 2.752 2.752 0 0 1 296.506 69.406 A 3.23 3.23 0 0 1 296.045 68.628 A 4.959 4.959 0 0 1 296.04 68.615 Q 295.862 68.192 295.744 67.696 A 8.039 8.039 0 0 1 295.581 66.748 A 18.19 18.19 0 0 1 295.528 66.205 A 20.51 20.51 0 0 1 295.459 64.502 A 25.291 25.291 0 0 1 295.47 63.789 A 30.58 30.58 0 0 1 295.533 62.525 Q 295.606 61.475 295.679 60.449 A 222.015 222.015 0 0 1 295.752 59.454 A 183.804 183.804 0 0 1 295.826 58.521 Q 295.871 57.956 295.889 57.496 A 13.825 13.825 0 0 0 295.899 56.983 A 10.163 10.163 0 0 0 295.697 54.906 A 7.198 7.198 0 0 0 294.678 52.393 A 3.895 3.895 0 0 0 292.443 50.737 A 5.477 5.477 0 0 0 290.918 50.537 Q 290.165 50.537 289.351 50.804 A 7.456 7.456 0 0 0 288.208 51.294 A 6.764 6.764 0 0 0 287.591 51.663 Q 287.002 52.058 286.417 52.612 A 13.101 13.101 0 0 0 285.352 53.76 A 49.41 49.41 0 0 0 282.642 57.471 Q 281.348 59.424 280.176 61.401 A 96.816 96.816 0 0 0 277.979 65.308 A 124.703 124.703 0 0 0 277.015 67.157 Z M 607.079 60.618 A 60.662 60.662 0 0 0 607.52 59.717 A 4.736 4.736 0 0 0 607.556 59.624 Q 607.66 59.347 607.696 59.138 A 1.198 1.198 0 0 0 607.715 58.936 Q 607.715 58.203 607.203 57.617 A 1.655 1.655 0 0 0 606.515 57.14 A 1.906 1.906 0 0 0 605.86 57.031 A 1.836 1.836 0 0 0 604.883 57.3 Q 604.444 57.568 604.2 58.057 Q 603.565 59.375 602.417 61.548 Q 601.27 63.721 599.756 65.82 Q 598.243 67.92 596.436 69.458 A 7.408 7.408 0 0 1 595.177 70.334 A 5.176 5.176 0 0 1 592.676 70.996 A 4.413 4.413 0 0 1 590.429 70.387 Q 589.617 69.917 588.89 69.085 A 10.387 10.387 0 0 1 587.745 67.456 A 20.698 20.698 0 0 1 586.433 64.708 Q 585.274 61.784 584.473 57.715 A 153.76 153.76 0 0 0 589.6 47.485 A 106.787 106.787 0 0 0 593.75 36.963 A 85.296 85.296 0 0 0 596.534 26.489 A 57.914 57.914 0 0 0 596.882 24.55 A 50.876 50.876 0 0 0 597.559 16.406 A 57.237 57.237 0 0 0 597.531 14.584 Q 597.442 11.797 597.071 9.717 Q 596.773 8.051 596.331 6.765 A 11.324 11.324 0 0 0 595.704 5.274 A 8.881 8.881 0 0 0 595.588 5.056 Q 594.741 3.516 593.531 2.808 Q 592.237 2.051 590.625 2.051 A 4.654 4.654 0 0 0 588.338 2.64 A 5.907 5.907 0 0 0 586.963 3.711 A 10.594 10.594 0 0 0 586.432 4.302 Q 585.766 5.1 585.168 6.114 A 19.784 19.784 0 0 0 584.107 8.203 A 28.538 28.538 0 0 0 583.943 8.583 Q 583.375 9.929 582.88 11.474 A 46.79 46.79 0 0 0 581.958 14.795 A 75.251 75.251 0 0 0 581.527 16.702 A 86.399 86.399 0 0 0 580.469 22.754 Q 579.883 26.953 579.615 31.348 A 150.927 150.927 0 0 0 579.497 33.527 A 135.734 135.734 0 0 0 579.346 39.844 A 99.777 99.777 0 0 0 579.349 40.657 Q 579.36 41.901 579.4 43.293 A 174.499 174.499 0 0 0 579.517 46.338 A 88.673 88.673 0 0 0 579.565 47.257 A 97.72 97.72 0 0 0 580.176 53.882 Q 580.664 57.764 581.568 61.499 A 36.264 36.264 0 0 0 582.394 64.401 A 28.449 28.449 0 0 0 583.936 68.164 A 17.71 17.71 0 0 0 585.177 70.282 A 13.575 13.575 0 0 0 587.5 72.901 A 7.323 7.323 0 0 0 589.612 74.182 A 7.919 7.919 0 0 0 592.53 74.707 A 8.213 8.213 0 0 0 596.119 73.901 A 13.31 13.31 0 0 0 596.23 73.847 A 14.157 14.157 0 0 0 599.292 71.802 A 20.582 20.582 0 0 0 602.051 68.872 A 41.023 41.023 0 0 0 602.209 68.668 A 37.44 37.44 0 0 0 604.346 65.576 A 58.183 58.183 0 0 0 605.084 64.348 A 48.871 48.871 0 0 0 606.177 62.378 A 116.087 116.087 0 0 0 606.654 61.457 Q 606.88 61.017 607.079 60.618 Z M 162.891 67.871 Q 161.67 67.871 160.743 67.676 A 14.324 14.324 0 0 1 158.985 70.386 A 11.573 11.573 0 0 1 156.617 72.559 A 11.328 11.328 0 0 1 153.922 73.919 A 12.788 12.788 0 0 1 153.614 74.024 Q 151.954 74.561 150 74.561 A 11.362 11.362 0 0 1 147.292 74.248 A 9.794 9.794 0 0 1 145.801 73.755 A 10.151 10.151 0 0 1 142.481 71.509 A 9.88 9.88 0 0 1 140.462 68.478 A 11.474 11.474 0 0 1 140.284 68.042 A 11.716 11.716 0 0 1 139.564 64.915 A 14.242 14.242 0 0 1 139.502 63.574 A 14.701 14.701 0 0 1 139.733 60.908 A 10.861 10.861 0 0 1 140.625 58.13 A 17.528 17.528 0 0 1 141.814 56.036 A 13.063 13.063 0 0 1 143.213 54.273 Q 144.678 52.734 146.143 51.978 A 12.768 12.768 0 0 1 146.83 51.647 Q 147.492 51.353 147.959 51.262 A 2.006 2.006 0 0 1 148.34 51.221 Q 148.918 51.221 149.294 51.434 A 1.228 1.228 0 0 1 149.585 51.66 A 1.483 1.483 0 0 1 149.958 52.393 A 2.153 2.153 0 0 1 150 52.832 Q 150 53.521 149.647 53.924 A 1.295 1.295 0 0 1 149.488 54.077 Q 149.047 54.434 148.408 54.773 A 10.167 10.167 0 0 1 148.194 54.883 A 7.547 7.547 0 0 0 147.491 55.285 Q 147.144 55.509 146.779 55.789 A 13.013 13.013 0 0 0 146.534 55.982 A 7.969 7.969 0 0 0 145.495 56.995 A 10.075 10.075 0 0 0 144.898 57.764 A 8.805 8.805 0 0 0 144.094 59.177 A 11.286 11.286 0 0 0 143.653 60.303 Q 143.164 61.768 143.164 63.574 A 9.379 9.379 0 0 0 143.406 65.732 A 8.308 8.308 0 0 0 143.653 66.577 A 7 7 0 0 0 144.575 68.367 A 6.355 6.355 0 0 0 145.069 68.97 Q 145.997 69.971 147.266 70.532 Q 148.536 71.094 150.098 71.094 A 9.885 9.885 0 0 0 152.127 70.896 Q 153.505 70.608 154.571 69.897 A 6.267 6.267 0 0 0 154.712 69.8 A 8.586 8.586 0 0 0 157.52 66.504 A 12.754 12.754 0 0 1 152.784 62.207 Q 150.928 59.424 150.928 55.957 A 9.456 9.456 0 0 1 151.117 54.014 Q 151.432 52.515 152.271 51.416 A 4.516 4.516 0 0 1 153.663 50.184 Q 154.609 49.658 155.811 49.658 A 5.152 5.152 0 0 1 158.301 50.293 Q 159.473 50.928 160.376 52.295 Q 161.137 53.446 161.638 55.15 A 16.754 16.754 0 0 1 161.817 55.811 Q 162.274 57.638 162.342 60.065 A 31.017 31.017 0 0 1 162.354 60.938 Q 162.354 62.5 161.963 64.209 A 3.558 3.558 0 0 0 162.549 64.258 L 163.184 64.258 A 12.117 12.117 0 0 0 164.759 64.16 A 9.105 9.105 0 0 0 166.163 63.867 A 7.802 7.802 0 0 0 168.555 62.695 A 7.989 7.989 0 0 0 169.986 61.345 A 9.641 9.641 0 0 0 170.484 60.693 Q 171.338 59.473 172.12 57.861 Q 172.266 57.568 172.754 57.3 A 2.244 2.244 0 0 1 173.258 57.094 A 1.831 1.831 0 0 1 173.731 57.031 A 1.6 1.6 0 0 1 174.569 57.274 A 2.278 2.278 0 0 1 174.927 57.544 A 1.698 1.698 0 0 1 175.483 58.728 A 2.324 2.324 0 0 1 175.489 58.887 A 1.83 1.83 0 0 1 175.441 59.289 Q 175.4 59.472 175.323 59.668 A 3.231 3.231 0 0 1 175.293 59.741 A 16.093 16.093 0 0 1 175.098 60.187 A 13.009 13.009 0 0 1 174.903 60.596 A 20.007 20.007 0 0 1 172.974 63.403 Q 171.875 64.746 170.386 65.747 A 12.64 12.64 0 0 1 167.724 67.1 A 14.499 14.499 0 0 1 167.041 67.334 Q 165.186 67.92 162.891 67.871 Z M 539.063 67.871 Q 537.842 67.871 536.914 67.676 A 14.324 14.324 0 0 1 535.157 70.386 A 11.573 11.573 0 0 1 532.788 72.559 A 11.328 11.328 0 0 1 530.094 73.919 A 12.788 12.788 0 0 1 529.786 74.024 Q 528.125 74.561 526.172 74.561 A 11.362 11.362 0 0 1 523.464 74.248 A 9.794 9.794 0 0 1 521.973 73.755 A 10.151 10.151 0 0 1 518.653 71.509 A 9.88 9.88 0 0 1 516.634 68.478 A 11.474 11.474 0 0 1 516.455 68.042 A 11.716 11.716 0 0 1 515.736 64.915 A 14.242 14.242 0 0 1 515.674 63.574 A 14.701 14.701 0 0 1 515.905 60.908 A 10.861 10.861 0 0 1 516.797 58.13 A 17.528 17.528 0 0 1 517.986 56.036 A 13.063 13.063 0 0 1 519.385 54.273 Q 520.85 52.734 522.315 51.978 A 12.768 12.768 0 0 1 523.002 51.647 Q 523.664 51.353 524.131 51.262 A 2.006 2.006 0 0 1 524.512 51.221 Q 525.09 51.221 525.466 51.434 A 1.228 1.228 0 0 1 525.757 51.66 A 1.483 1.483 0 0 1 526.13 52.393 A 2.153 2.153 0 0 1 526.172 52.832 Q 526.172 53.521 525.819 53.924 A 1.295 1.295 0 0 1 525.66 54.077 Q 525.219 54.434 524.58 54.773 A 10.167 10.167 0 0 1 524.366 54.883 A 7.547 7.547 0 0 0 523.663 55.285 Q 523.316 55.509 522.951 55.789 A 13.013 13.013 0 0 0 522.705 55.982 A 7.969 7.969 0 0 0 521.667 56.995 A 10.075 10.075 0 0 0 521.07 57.764 A 8.805 8.805 0 0 0 520.266 59.177 A 11.286 11.286 0 0 0 519.825 60.303 Q 519.336 61.768 519.336 63.574 A 9.379 9.379 0 0 0 519.578 65.732 A 8.308 8.308 0 0 0 519.825 66.577 A 7 7 0 0 0 520.747 68.367 A 6.355 6.355 0 0 0 521.241 68.97 Q 522.168 69.971 523.438 70.532 Q 524.707 71.094 526.27 71.094 A 9.885 9.885 0 0 0 528.299 70.896 Q 529.677 70.608 530.743 69.897 A 6.267 6.267 0 0 0 530.884 69.8 A 8.586 8.586 0 0 0 533.692 66.504 A 12.754 12.754 0 0 1 528.955 62.207 Q 527.1 59.424 527.1 55.957 A 9.456 9.456 0 0 1 527.289 54.014 Q 527.604 52.515 528.443 51.416 A 4.516 4.516 0 0 1 529.835 50.184 Q 530.781 49.658 531.983 49.658 A 5.152 5.152 0 0 1 534.473 50.293 Q 535.645 50.928 536.548 52.295 Q 537.309 53.446 537.81 55.15 A 16.754 16.754 0 0 1 537.989 55.811 Q 538.445 57.638 538.514 60.065 A 31.017 31.017 0 0 1 538.526 60.938 Q 538.526 62.5 538.135 64.209 A 3.558 3.558 0 0 0 538.721 64.258 L 539.356 64.258 A 12.117 12.117 0 0 0 540.931 64.16 A 9.105 9.105 0 0 0 542.334 63.867 A 7.802 7.802 0 0 0 544.727 62.695 A 7.989 7.989 0 0 0 546.158 61.345 A 9.641 9.641 0 0 0 546.656 60.693 Q 547.51 59.473 548.291 57.861 Q 548.438 57.568 548.926 57.3 A 2.244 2.244 0 0 1 549.43 57.094 A 1.831 1.831 0 0 1 549.903 57.031 A 1.6 1.6 0 0 1 550.741 57.274 A 2.278 2.278 0 0 1 551.099 57.544 A 1.698 1.698 0 0 1 551.655 58.728 A 2.324 2.324 0 0 1 551.661 58.887 A 1.83 1.83 0 0 1 551.613 59.289 Q 551.572 59.472 551.495 59.668 A 3.231 3.231 0 0 1 551.465 59.741 A 16.093 16.093 0 0 1 551.27 60.187 A 13.009 13.009 0 0 1 551.075 60.596 A 20.007 20.007 0 0 1 549.146 63.403 Q 548.047 64.746 546.558 65.747 A 12.64 12.64 0 0 1 543.896 67.1 A 14.499 14.499 0 0 1 543.213 67.334 Q 541.358 67.92 539.063 67.871 Z M 570.655 67.871 Q 569.434 67.871 568.506 67.676 A 14.324 14.324 0 0 1 566.748 70.386 A 11.573 11.573 0 0 1 564.38 72.559 A 11.328 11.328 0 0 1 561.686 73.919 A 12.788 12.788 0 0 1 561.377 74.024 Q 559.717 74.561 557.764 74.561 A 11.362 11.362 0 0 1 555.056 74.248 A 9.794 9.794 0 0 1 553.565 73.755 A 10.151 10.151 0 0 1 550.245 71.509 A 9.88 9.88 0 0 1 548.226 68.478 A 11.474 11.474 0 0 1 548.047 68.042 A 11.716 11.716 0 0 1 547.328 64.915 A 14.242 14.242 0 0 1 547.266 63.574 A 14.701 14.701 0 0 1 547.497 60.908 A 10.861 10.861 0 0 1 548.389 58.13 A 17.528 17.528 0 0 1 549.577 56.036 A 13.063 13.063 0 0 1 550.977 54.273 Q 552.442 52.734 553.907 51.978 A 12.768 12.768 0 0 1 554.593 51.647 Q 555.256 51.353 555.723 51.262 A 2.006 2.006 0 0 1 556.104 51.221 Q 556.681 51.221 557.058 51.434 A 1.228 1.228 0 0 1 557.349 51.66 A 1.483 1.483 0 0 1 557.722 52.393 A 2.153 2.153 0 0 1 557.764 52.832 Q 557.764 53.521 557.411 53.924 A 1.295 1.295 0 0 1 557.251 54.077 Q 556.811 54.434 556.172 54.773 A 10.167 10.167 0 0 1 555.957 54.883 A 7.547 7.547 0 0 0 555.255 55.285 Q 554.908 55.509 554.543 55.789 A 13.013 13.013 0 0 0 554.297 55.982 A 7.969 7.969 0 0 0 553.259 56.995 A 10.075 10.075 0 0 0 552.662 57.764 A 8.805 8.805 0 0 0 551.857 59.177 A 11.286 11.286 0 0 0 551.416 60.303 Q 550.928 61.768 550.928 63.574 A 9.379 9.379 0 0 0 551.17 65.732 A 8.308 8.308 0 0 0 551.416 66.577 A 7 7 0 0 0 552.339 68.367 A 6.355 6.355 0 0 0 552.832 68.97 Q 553.76 69.971 555.03 70.532 Q 556.299 71.094 557.862 71.094 A 9.885 9.885 0 0 0 559.891 70.896 Q 561.268 70.608 562.335 69.897 A 6.267 6.267 0 0 0 562.476 69.8 A 8.586 8.586 0 0 0 565.284 66.504 A 12.754 12.754 0 0 1 560.547 62.207 Q 558.692 59.424 558.692 55.957 A 9.456 9.456 0 0 1 558.881 54.014 Q 559.195 52.515 560.035 51.416 A 4.516 4.516 0 0 1 561.427 50.184 Q 562.373 49.658 563.575 49.658 A 5.152 5.152 0 0 1 566.065 50.293 Q 567.237 50.928 568.14 52.295 Q 568.9 53.446 569.401 55.15 A 16.754 16.754 0 0 1 569.58 55.811 Q 570.037 57.638 570.106 60.065 A 31.017 31.017 0 0 1 570.118 60.938 Q 570.118 62.5 569.727 64.209 A 3.558 3.558 0 0 0 570.313 64.258 L 570.948 64.258 A 12.117 12.117 0 0 0 572.522 64.16 A 9.105 9.105 0 0 0 573.926 63.867 A 7.802 7.802 0 0 0 576.319 62.695 A 7.989 7.989 0 0 0 577.749 61.345 A 9.641 9.641 0 0 0 578.247 60.693 Q 579.102 59.473 579.883 57.861 Q 580.03 57.568 580.518 57.3 A 2.244 2.244 0 0 1 581.022 57.094 A 1.831 1.831 0 0 1 581.495 57.031 A 1.6 1.6 0 0 1 582.333 57.274 A 2.278 2.278 0 0 1 582.691 57.544 A 1.698 1.698 0 0 1 583.247 58.728 A 2.324 2.324 0 0 1 583.252 58.887 A 1.83 1.83 0 0 1 583.205 59.289 Q 583.164 59.472 583.087 59.668 A 3.231 3.231 0 0 1 583.057 59.741 A 16.093 16.093 0 0 1 582.862 60.187 A 13.009 13.009 0 0 1 582.666 60.596 A 20.007 20.007 0 0 1 580.738 63.403 Q 579.639 64.746 578.15 65.747 A 12.64 12.64 0 0 1 575.488 67.1 A 14.499 14.499 0 0 1 574.805 67.334 Q 572.95 67.92 570.655 67.871 Z M 482.325 59.717 A 22.3 22.3 0 0 0 482.158 60.029 Q 481.86 60.597 481.324 61.67 A 22.176 22.176 0 0 1 480.724 62.784 Q 480.376 63.39 479.953 64.053 A 41.584 41.584 0 0 1 479.419 64.868 Q 478.223 66.651 476.563 68.555 A 23.669 23.669 0 0 1 472.888 71.947 A 26.067 26.067 0 0 1 472.754 72.046 A 20.179 20.179 0 0 1 468.439 74.461 A 22.659 22.659 0 0 1 467.945 74.658 A 15.527 15.527 0 0 1 463.32 75.647 A 18.29 18.29 0 0 1 462.159 75.684 A 13.18 13.18 0 0 1 459.534 75.433 A 10.286 10.286 0 0 1 457.227 74.683 Q 455.079 73.682 453.565 71.851 Q 452.051 70.02 451.27 67.529 A 16.899 16.899 0 0 1 450.599 64.207 A 21.286 21.286 0 0 1 450.489 62.012 A 18.335 18.335 0 0 1 450.936 57.906 A 16.366 16.366 0 0 1 451.319 56.519 A 16.193 16.193 0 0 1 452.52 53.707 A 13.545 13.545 0 0 1 453.589 52.051 Q 455.03 50.147 456.934 49.048 Q 458.838 47.949 460.987 47.949 Q 462.598 47.949 463.916 48.511 A 7.166 7.166 0 0 1 465.402 49.356 A 6.206 6.206 0 0 1 466.138 50 A 7.234 7.234 0 0 1 467.554 52.051 Q 468.067 53.174 468.067 54.297 Q 468.067 55.371 467.798 56.299 A 8.017 8.017 0 0 1 467.461 57.248 A 6.274 6.274 0 0 1 467.115 57.935 A 4.535 4.535 0 0 1 466.699 58.534 A 3.384 3.384 0 0 1 466.163 59.058 Q 465.625 59.473 465.088 59.473 A 2.085 2.085 0 0 1 464.466 59.384 A 1.666 1.666 0 0 1 463.746 58.936 A 1.833 1.833 0 0 1 463.233 57.642 A 2.363 2.363 0 0 1 463.233 57.617 A 1.51 1.51 0 0 1 463.274 57.256 A 1.209 1.209 0 0 1 463.404 56.934 Q 463.575 56.641 463.794 56.323 A 2.865 2.865 0 0 0 463.99 55.994 Q 464.094 55.789 464.185 55.542 A 2.415 2.415 0 0 0 464.289 55.156 Q 464.356 54.804 464.356 54.346 A 2.182 2.182 0 0 0 463.908 53.032 A 3.345 3.345 0 0 0 463.404 52.49 A 3.33 3.33 0 0 0 461.688 51.712 A 4.562 4.562 0 0 0 460.987 51.66 Q 459.62 51.66 458.374 52.49 A 7.532 7.532 0 0 0 456.685 54.051 A 9.129 9.129 0 0 0 456.202 54.712 A 10.987 10.987 0 0 0 455.229 56.537 A 14.052 14.052 0 0 0 454.712 57.984 A 13.647 13.647 0 0 0 454.16 61.442 A 15.402 15.402 0 0 0 454.151 61.963 A 14.764 14.764 0 0 0 454.498 65.202 A 13.524 13.524 0 0 0 454.639 65.772 Q 455.127 67.578 456.104 68.97 Q 457.08 70.361 458.57 71.192 A 6.423 6.423 0 0 0 460.593 71.895 A 8.694 8.694 0 0 0 462.11 72.022 A 12.804 12.804 0 0 0 465.698 71.53 A 11.614 11.614 0 0 0 466.993 71.069 Q 469.239 70.117 471.094 68.652 A 21.073 21.073 0 0 0 474.277 65.562 A 19.662 19.662 0 0 0 474.366 65.454 A 43.954 43.954 0 0 0 475.678 63.77 A 32.633 32.633 0 0 0 476.783 62.183 A 36.255 36.255 0 0 0 477.472 61.084 Q 477.794 60.547 478.051 60.069 A 16.989 16.989 0 0 0 478.345 59.497 Q 478.907 58.35 479.004 58.057 Q 479.2 57.568 479.663 57.3 A 1.964 1.964 0 0 1 480.664 57.031 A 1.906 1.906 0 0 1 481.319 57.14 A 1.655 1.655 0 0 1 482.007 57.617 Q 482.52 58.203 482.52 58.936 A 1.198 1.198 0 0 1 482.501 59.138 Q 482.465 59.347 482.361 59.624 A 4.736 4.736 0 0 1 482.325 59.717 Z M 115.186 53.174 Q 114.991 54.492 114.698 55.64 A 48.681 48.681 0 0 1 114.446 56.588 Q 114.327 57.018 114.212 57.396 A 26.573 26.573 0 0 1 114.136 57.642 A 55.181 55.181 0 0 1 114.006 58.049 Q 113.819 58.63 113.672 59.033 A 18.82 18.82 0 0 1 113.626 59.16 Q 113.471 59.577 113.428 59.619 Q 112.994 60.618 111.98 60.729 A 2.409 2.409 0 0 1 111.719 60.742 A 1.8 1.8 0 0 1 110.711 60.429 A 2.422 2.422 0 0 1 110.45 60.23 A 1.678 1.678 0 0 1 109.976 59.568 A 1.74 1.74 0 0 1 109.864 58.936 A 1.417 1.417 0 0 1 109.871 58.782 Q 109.89 58.616 109.95 58.514 A 0.395 0.395 0 0 1 109.961 58.496 A 1.308 1.308 0 0 0 110.012 58.411 Q 110.105 58.247 110.254 57.91 A 4.712 4.712 0 0 0 110.358 57.654 Q 110.469 57.359 110.604 56.915 A 27.413 27.413 0 0 0 110.743 56.445 A 19.583 19.583 0 0 0 110.898 55.863 Q 111.145 54.883 111.475 53.272 A 30.655 30.655 0 0 1 109.876 53.229 A 33.536 33.536 0 0 1 109.766 53.223 A 5.487 5.487 0 0 1 108.519 53.013 A 4.921 4.921 0 0 1 108.13 52.881 Q 107.373 52.588 106.885 51.953 A 2.157 2.157 0 0 1 106.535 51.251 Q 106.444 50.95 106.413 50.589 A 4.587 4.587 0 0 1 106.397 50.195 A 4.098 4.098 0 0 1 106.442 49.619 Q 106.542 48.923 106.861 47.949 Q 107.325 46.533 108.106 45.166 A 12.451 12.451 0 0 1 109.159 43.6 A 10.445 10.445 0 0 1 109.864 42.798 A 4.458 4.458 0 0 1 110.444 42.292 Q 110.787 42.044 111.13 41.921 A 2.014 2.014 0 0 1 111.817 41.797 Q 112.94 41.797 113.648 42.627 A 5.483 5.483 0 0 1 114.44 43.874 A 6.912 6.912 0 0 1 114.747 44.653 A 13.78 13.78 0 0 1 115.303 47.127 A 15.007 15.007 0 0 1 115.308 47.168 Q 115.479 48.486 115.479 49.463 A 54.01 54.01 0 0 0 117.115 49.439 A 54.63 54.63 0 0 1 117.902 49.42 A 47.322 47.322 0 0 1 118.653 49.414 A 10.162 10.162 0 0 1 120.264 49.533 Q 121.894 49.796 122.901 50.635 Q 124.366 51.856 124.366 54.639 A 19.029 19.029 0 0 1 124.283 56.378 A 21.821 21.821 0 0 1 124.219 56.983 A 82.614 82.614 0 0 1 123.925 59.175 A 90.615 90.615 0 0 1 123.877 59.497 A 74.032 74.032 0 0 0 123.536 62.061 A 21.718 21.718 0 0 0 123.389 64.551 A 10.431 10.431 0 0 0 123.455 65.76 Q 123.526 66.366 123.673 66.877 A 5.047 5.047 0 0 0 123.877 67.456 A 6.457 6.457 0 0 0 124.351 68.371 Q 124.665 68.87 125.047 69.239 A 3.999 3.999 0 0 0 125.098 69.287 A 4.647 4.647 0 0 0 125.904 69.896 A 3.766 3.766 0 0 0 126.661 70.239 A 6.121 6.121 0 0 0 127.359 70.423 Q 127.722 70.495 128.053 70.506 A 3.581 3.581 0 0 0 128.174 70.508 A 6.39 6.39 0 0 0 131.603 69.498 A 8.08 8.08 0 0 0 132.129 69.141 A 18.338 18.338 0 0 0 135.127 66.347 A 20.788 20.788 0 0 0 135.547 65.845 A 31.79 31.79 0 0 0 138.355 61.768 A 117.405 117.405 0 0 0 139.23 60.232 Q 139.656 59.471 140.018 58.793 A 60.626 60.626 0 0 0 140.43 58.008 Q 140.674 57.568 141.114 57.324 Q 141.553 57.08 142.041 57.08 A 2.203 2.203 0 0 1 142.62 57.152 A 1.563 1.563 0 0 1 143.409 57.642 A 2.045 2.045 0 0 1 143.767 58.214 A 1.772 1.772 0 0 1 143.897 58.887 A 2.103 2.103 0 0 1 143.835 59.405 A 1.784 1.784 0 0 1 143.702 59.766 Q 142.653 61.635 141.285 63.951 A 310.604 310.604 0 0 1 141.089 64.282 A 32.346 32.346 0 0 1 137.696 68.994 A 19.622 19.622 0 0 1 133.423 72.705 A 9.463 9.463 0 0 1 128.223 74.219 Q 126.465 74.219 124.903 73.56 A 7.729 7.729 0 0 1 122.193 71.655 A 8.586 8.586 0 0 1 120.887 69.769 A 10.831 10.831 0 0 1 120.362 68.579 Q 119.678 66.748 119.678 64.453 A 24.476 24.476 0 0 1 120.166 59.595 A 24.759 24.759 0 0 0 120.597 56.517 A 20.862 20.862 0 0 0 120.655 54.981 Q 120.655 54.389 120.486 53.986 A 1.401 1.401 0 0 0 120.24 53.589 A 1 1 0 0 0 119.905 53.354 Q 119.406 53.126 118.414 53.125 A 5.419 5.419 0 0 0 118.409 53.125 L 116.919 53.125 A 29.726 29.726 0 0 0 116.083 53.137 A 36.801 36.801 0 0 0 115.186 53.174 Z M 245.655 67.871 A 7.594 7.594 0 0 0 248.291 70.142 Q 249.781 70.932 251.896 70.991 A 12.41 12.41 0 0 0 252.247 70.996 A 8.592 8.592 0 0 0 255.588 70.351 A 8.253 8.253 0 0 0 256.592 69.849 A 14.061 14.061 0 0 0 259.645 67.408 A 16.247 16.247 0 0 0 260.157 66.846 A 23.85 23.85 0 0 0 262.796 63.122 A 26.568 26.568 0 0 0 263.038 62.695 Q 264.307 60.401 265.332 58.106 A 2.021 2.021 0 0 1 265.604 57.661 A 1.619 1.619 0 0 1 266.016 57.3 A 1.836 1.836 0 0 1 266.993 57.031 A 1.906 1.906 0 0 1 267.647 57.14 A 1.655 1.655 0 0 1 268.335 57.617 A 2.213 2.213 0 0 1 268.681 58.139 A 1.752 1.752 0 0 1 268.848 58.887 Q 268.848 59.131 268.799 59.302 A 1.835 1.835 0 0 1 268.738 59.479 A 2.5 2.5 0 0 1 268.653 59.667 Q 265.284 67.09 261.304 70.85 A 14.632 14.632 0 0 1 257.343 73.57 A 12.603 12.603 0 0 1 252.295 74.707 Q 249.073 74.707 246.729 73.462 A 11.918 11.918 0 0 1 243.573 71.07 A 11.164 11.164 0 0 1 242.872 70.239 A 13.583 13.583 0 0 1 240.625 65.772 A 17.575 17.575 0 0 1 239.893 60.791 Q 239.893 58.301 240.503 56.201 A 12.521 12.521 0 0 1 241.417 53.897 A 10.485 10.485 0 0 1 242.261 52.539 A 8.683 8.683 0 0 1 244.23 50.58 A 8.071 8.071 0 0 1 244.996 50.098 Q 246.582 49.219 248.487 49.219 A 5.638 5.638 0 0 1 250.605 49.64 A 6.452 6.452 0 0 1 250.708 49.683 A 6.375 6.375 0 0 1 252.686 51.001 A 6.376 6.376 0 0 1 253.925 52.703 A 7.471 7.471 0 0 1 254.102 53.076 A 6.262 6.262 0 0 1 254.564 54.736 A 8.079 8.079 0 0 1 254.639 55.859 A 10.394 10.394 0 0 1 254.125 59.148 A 9.795 9.795 0 0 1 253.955 59.619 Q 253.272 61.377 252.076 62.891 A 15.64 15.64 0 0 1 249.825 65.189 A 17.839 17.839 0 0 1 249.219 65.674 A 20.971 20.971 0 0 1 245.655 67.871 Z M 583.057 40.088 A 121.998 121.998 0 0 0 583.139 44.638 A 108.129 108.129 0 0 0 583.204 46.094 Q 583.35 48.975 583.594 51.611 A 106.366 106.366 0 0 0 586.56 45.39 A 120.375 120.375 0 0 0 587.5 43.189 A 103.429 103.429 0 0 0 590.772 34.155 Q 592.188 29.59 593.042 25.073 A 49.23 49.23 0 0 0 593.796 19.324 A 41.551 41.551 0 0 0 593.897 16.455 Q 593.897 12.023 593.348 9.526 A 9.91 9.91 0 0 0 592.969 8.203 A 7.386 7.386 0 0 0 592.533 7.233 Q 591.917 6.109 591.089 5.816 A 1.815 1.815 0 0 0 590.479 5.713 Q 589.49 5.713 588.568 7.031 A 6.608 6.608 0 0 0 588.501 7.129 A 11.087 11.087 0 0 0 587.819 8.307 Q 587.496 8.945 587.188 9.713 A 25.597 25.597 0 0 0 586.719 10.986 A 38.309 38.309 0 0 0 586.021 13.291 Q 585.59 14.88 585.205 16.748 A 82.5 82.5 0 0 0 584.437 21.089 A 99.273 99.273 0 0 0 584.058 23.877 A 137.207 137.207 0 0 0 583.472 29.782 A 154.776 154.776 0 0 0 583.326 31.836 A 127.769 127.769 0 0 0 583.057 40.088 Z M 482.862 51.074 Q 484.913 46.582 486.597 42.31 A 88.999 88.999 0 0 0 489.478 33.789 Q 490.674 29.541 491.358 25.171 A 58.113 58.113 0 0 0 492.031 17.243 A 64.694 64.694 0 0 0 492.041 16.065 Q 492.041 15.313 491.974 13.701 A 168.917 168.917 0 0 0 491.968 13.574 A 21.494 21.494 0 0 0 491.529 10.108 A 11.761 11.761 0 0 0 491.034 8.376 A 9.14 9.14 0 0 0 490.406 7.031 A 3.048 3.048 0 0 0 489.858 6.322 A 2.216 2.216 0 0 0 488.282 5.713 A 1.616 1.616 0 0 0 487.237 6.108 Q 486.984 6.315 486.752 6.632 A 4.614 4.614 0 0 0 486.426 7.153 A 10.549 10.549 0 0 0 485.89 8.321 Q 485.662 8.901 485.454 9.585 A 24.982 24.982 0 0 0 485.059 11.06 A 41.126 41.126 0 0 0 484.584 13.371 Q 484.302 14.957 484.082 16.797 Q 483.692 20.068 483.448 23.731 A 215.606 215.606 0 0 0 483.081 31.25 Q 482.959 35.108 482.911 38.745 A 563.626 563.626 0 0 0 482.874 42.267 A 459.374 459.374 0 0 0 482.862 45.557 L 482.862 51.074 Z M 334.473 19.678 A 45.77 45.77 0 0 0 334.455 18.408 A 57.289 57.289 0 0 0 334.4 17.041 A 17.583 17.583 0 0 0 334.207 15.175 A 14.989 14.989 0 0 0 334.058 14.38 Q 333.845 13.39 333.523 12.663 A 5.617 5.617 0 0 0 333.35 12.305 Q 333.061 11.76 332.647 11.573 A 1.126 1.126 0 0 0 332.178 11.475 A 1.565 1.565 0 0 0 331.242 11.809 Q 330.699 12.208 330.194 13.083 A 8.885 8.885 0 0 0 329.908 13.623 A 17.655 17.655 0 0 0 329.162 15.413 Q 328.827 16.347 328.525 17.449 A 39.785 39.785 0 0 0 328.077 19.263 A 59.313 59.313 0 0 0 327.375 22.986 Q 327.068 24.933 326.839 27.104 A 96.236 96.236 0 0 0 326.831 27.173 Q 326.368 31.592 326.368 36.084 A 108.335 108.335 0 0 0 326.709 44.678 A 186.394 186.394 0 0 0 327.051 48.502 Q 327.257 50.554 327.491 52.344 A 159.473 159.473 0 0 0 330.176 44.605 A 101.165 101.165 0 0 0 332.398 36.475 Q 333.35 32.324 333.912 28.101 Q 334.473 23.877 334.473 19.678 Z M 119.141 8.35 Q 119.141 7.178 118.384 6.47 A 5.107 5.107 0 0 0 117.233 5.667 A 6.457 6.457 0 0 0 116.504 5.347 Q 115.381 4.932 114.136 4.785 A 22.727 22.727 0 0 0 112.946 4.675 A 16.81 16.81 0 0 0 111.866 4.639 A 26.489 26.489 0 0 0 109.394 4.761 Q 108.114 4.881 106.71 5.119 A 42.754 42.754 0 0 0 106.665 5.127 A 23.067 23.067 0 0 0 101.353 6.729 A 25.724 25.724 0 0 0 101.001 6.885 A 20.557 20.557 0 0 0 96.232 9.915 A 23.327 23.327 0 0 0 95.728 10.352 A 15.727 15.727 0 0 0 92.707 14.045 A 19.554 19.554 0 0 0 91.7 15.967 A 106.41 106.41 0 0 0 96.912 16.406 A 82.201 82.201 0 0 0 101.709 16.553 A 40.872 40.872 0 0 0 105.761 16.36 A 32.926 32.926 0 0 0 108.667 15.943 A 29.181 29.181 0 0 0 111.298 15.32 Q 112.633 14.934 113.77 14.443 A 17.058 17.058 0 0 0 114.185 14.258 A 13.367 13.367 0 0 0 115.964 13.273 Q 117.061 12.545 117.823 11.67 A 5.612 5.612 0 0 0 118.747 10.238 A 4.658 4.658 0 0 0 119.141 8.35 Z M 225.733 26.074 L 219.971 26.074 Q 219.288 29.102 218.872 33.569 Q 218.587 36.641 218.498 40.624 A 170.518 170.518 0 0 0 218.457 44.434 A 114.982 114.982 0 0 0 218.47 46.144 Q 218.506 48.598 218.652 50.408 A 42.999 42.999 0 0 0 218.653 50.415 Q 218.848 52.832 219.239 54.785 A 61.238 61.238 0 0 0 221.206 49.888 A 71.464 71.464 0 0 0 221.9 47.827 A 87.593 87.593 0 0 0 223.951 40.283 A 80.34 80.34 0 0 0 225.24 33.042 A 73.991 73.991 0 0 0 225.269 32.813 A 61.781 61.781 0 0 0 225.617 29.297 A 46.99 46.99 0 0 0 225.733 26.074 Z M 244.19 64.697 A 11.906 11.906 0 0 0 246.949 63.086 A 11.813 11.813 0 0 0 248.671 61.441 A 10.63 10.63 0 0 0 249.073 60.938 Q 249.952 59.766 250.44 58.472 A 7.349 7.349 0 0 0 250.928 55.859 A 4.683 4.683 0 0 0 250.857 55.013 Q 250.771 54.546 250.581 54.178 A 2.264 2.264 0 0 0 250.196 53.638 A 2.582 2.582 0 0 0 249.495 53.114 A 2.226 2.226 0 0 0 248.487 52.881 A 3.956 3.956 0 0 0 247.337 53.042 A 3.29 3.29 0 0 0 246.241 53.613 A 5.337 5.337 0 0 0 245 55.026 A 6.453 6.453 0 0 0 244.727 55.518 A 9.388 9.388 0 0 0 244.049 57.341 A 11.22 11.22 0 0 0 243.872 58.13 A 15.558 15.558 0 0 0 243.604 60.986 A 10.156 10.156 0 0 0 243.681 62.212 A 12.195 12.195 0 0 0 243.775 62.842 A 20.101 20.101 0 0 0 244.072 64.252 A 17.746 17.746 0 0 0 244.19 64.697 Z M 154.541 55.567 A 7.898 7.898 0 0 0 154.647 56.826 A 9.613 9.613 0 0 0 154.786 57.52 A 8.938 8.938 0 0 0 155.449 59.358 A 9.989 9.989 0 0 0 155.542 59.546 Q 156.055 60.547 156.812 61.45 A 7.363 7.363 0 0 0 158.594 62.988 A 14.227 14.227 0 0 0 158.74 61.109 A 13.078 13.078 0 0 0 158.741 60.986 A 18.976 18.976 0 0 0 158.545 58.301 Q 158.35 56.934 157.984 55.786 Q 157.618 54.639 157.08 53.931 A 2.141 2.141 0 0 0 156.708 53.543 A 1.41 1.41 0 0 0 155.811 53.223 A 0.551 0.551 0 0 0 155.621 53.261 Q 155.448 53.325 155.228 53.496 A 3.536 3.536 0 0 0 155.03 53.662 A 1.075 1.075 0 0 0 154.777 54.025 Q 154.612 54.391 154.563 55 A 7.007 7.007 0 0 0 154.541 55.567 Z M 530.713 55.567 A 7.898 7.898 0 0 0 530.818 56.826 A 9.613 9.613 0 0 0 530.957 57.52 A 8.938 8.938 0 0 0 531.621 59.358 A 9.989 9.989 0 0 0 531.714 59.546 Q 532.227 60.547 532.984 61.45 A 7.363 7.363 0 0 0 534.766 62.988 A 14.227 14.227 0 0 0 534.912 61.109 A 13.078 13.078 0 0 0 534.913 60.986 A 18.976 18.976 0 0 0 534.717 58.301 Q 534.522 56.934 534.156 55.786 Q 533.789 54.639 533.252 53.931 A 2.141 2.141 0 0 0 532.879 53.543 A 1.41 1.41 0 0 0 531.983 53.223 A 0.551 0.551 0 0 0 531.793 53.261 Q 531.62 53.325 531.4 53.496 A 3.536 3.536 0 0 0 531.202 53.662 A 1.075 1.075 0 0 0 530.949 54.025 Q 530.784 54.391 530.735 55 A 7.007 7.007 0 0 0 530.713 55.567 Z M 562.305 55.567 A 7.898 7.898 0 0 0 562.41 56.826 A 9.613 9.613 0 0 0 562.549 57.52 A 8.938 8.938 0 0 0 563.212 59.358 A 9.989 9.989 0 0 0 563.306 59.546 Q 563.819 60.547 564.576 61.45 A 7.363 7.363 0 0 0 566.358 62.988 A 14.227 14.227 0 0 0 566.504 61.109 A 13.078 13.078 0 0 0 566.504 60.986 A 18.976 18.976 0 0 0 566.309 58.301 Q 566.114 56.934 565.747 55.786 Q 565.381 54.639 564.844 53.931 A 2.141 2.141 0 0 0 564.471 53.543 A 1.41 1.41 0 0 0 563.575 53.223 A 0.551 0.551 0 0 0 563.385 53.261 Q 563.212 53.325 562.991 53.496 A 3.536 3.536 0 0 0 562.793 53.662 A 1.075 1.075 0 0 0 562.541 54.025 Q 562.376 54.391 562.326 55 A 7.007 7.007 0 0 0 562.305 55.567 Z M 220.85 22.656 L 225.538 22.656 Q 225.3 20.664 224.856 19.501 A 6.173 6.173 0 0 0 224.83 19.434 Q 224.366 18.262 223.78 18.262 A 0.626 0.626 0 0 0 223.52 18.329 Q 223.165 18.493 222.645 19.063 A 8.741 8.741 0 0 0 222.51 19.214 A 4.604 4.604 0 0 0 222.043 19.871 Q 221.447 20.867 220.85 22.656 Z M 109.766 49.561 L 111.914 49.561 A 12.051 12.051 0 0 0 111.913 49.376 Q 111.908 49.078 111.89 48.657 A 11.98 11.98 0 0 0 111.792 47.559 A 7.282 7.282 0 0 0 111.72 47.124 Q 111.68 46.921 111.631 46.745 A 3.959 3.959 0 0 0 111.597 46.631 A 1.843 1.843 0 0 0 111.55 46.498 Q 111.448 46.24 111.329 46.24 Q 111.182 46.24 110.962 46.607 A 7.997 7.997 0 0 0 110.794 46.902 Q 110.696 47.083 110.593 47.291 A 14.62 14.62 0 0 0 110.498 47.485 A 9.355 9.355 0 0 0 110.16 48.296 A 10.627 10.627 0 0 0 110.059 48.584 A 21.591 21.591 0 0 0 109.967 48.865 Q 109.848 49.241 109.776 49.521 A 7.114 7.114 0 0 0 109.766 49.561 Z M 220.02 58.35 L 220.02 58.301 L 220.02 58.35 Z" vector-effect="non-scaling-stroke"/></g></svg>